<?xml version="1.0" encoding="UTF-8"?>
<svg xmlns="http://www.w3.org/2000/svg" xmlns:xlink="http://www.w3.org/1999/xlink" width="2500" height="2000" viewBox="0 0 2500 2000">
<defs>
<clipPath id="clip-0">

</clipPath>
<clipPath id="clip-1">
<path clip-rule="evenodd" d="M 839.011719 854.871094 L 839.015625 854.871094 L 839.324219 854.839844 L 839.320312 854.871094 L 840.6875 854.871094 C 840.296875 853.351562 840.066406 851.789062 840.011719 850.199219 C 839.757812 842.660156 843.496094 835.960938 848.582031 830.640625 C 861.992188 816.601562 885.414062 801.980469 904.753906 813.449219 L 906.199219 814.300781 C 962.125 770.851562 1027.488281 728.648438 1094.140625 714.339844 C 1094.140625 714.339844 1124.109375 700.601562 1131.480469 697.410156 C 1147.429688 690.488281 1165.171875 686.179688 1182.28125 683.429688 C 1211.960938 678.671875 1242.5 676.148438 1272.5 674.269531 C 1308.261719 672.039062 1344.140625 670.878906 1379.960938 670.300781 C 1439.570312 669.328125 1499.558594 669.820312 1559.128906 672.210938 C 1604.558594 674.019531 1650.148438 679.21875 1694.171875 690.890625 C 1730.140625 700.421875 1763.660156 714.039062 1796.300781 731.871094 C 1836.320312 753.71875 1873.550781 780.761719 1910.449219 807.429688 C 1931.851562 822.910156 1953.25 838.371094 1974.960938 853.398438 C 2000.148438 870.839844 2025.710938 887.671875 2051.789062 903.75 L 2054.378906 905.351562 L 2054.289062 908.390625 C 2054.050781 916.480469 2053.46875 924.78125 2052.601562 932.808594 C 2051.898438 939.351562 2050.359375 953.230469 2045.988281 958.21875 C 2045.78125 958.46875 2045.128906 959.238281 2045.050781 959.570312 C 2045 960.21875 2046.410156 963.808594 2046.660156 964.53125 C 2048.441406 969.601562 2049.378906 974.539062 2049.75 979.910156 C 2049.871094 981.640625 2050.019531 983.359375 2050.179688 985.078125 C 2050.949219 993.078125 2052.160156 1001.039062 2053.371094 1008.980469 C 2054.761719 1018.148438 2056.121094 1027.289062 2057.140625 1036.5 C 2058.039062 1044.570312 2059.160156 1052.921875 2059.140625 1061.039062 C 2059.121094 1070.53125 2057.339844 1079.929688 2055.421875 1089.199219 C 2051.859375 1106.398438 2047.21875 1123.878906 2042.128906 1140.699219 L 2041.53125 1142.691406 L 1980.378906 1178.320312 C 1977 1192.828125 1972.25 1206.988281 1965.859375 1219.699219 C 1957.609375 1236.121094 1942.820312 1256.808594 1922.410156 1257.339844 C 1922.308594 1257.351562 1922.199219 1257.351562 1922.089844 1257.359375 C 1921.851562 1257.371094 1921.609375 1257.371094 1921.378906 1257.371094 C 1920.628906 1257.378906 1919.878906 1257.378906 1919.140625 1257.371094 C 1916.550781 1257.351562 1913.960938 1257.320312 1911.371094 1257.28125 C 1903.519531 1257.179688 1895.671875 1257.039062 1887.820312 1256.910156 C 1876.710938 1256.710938 1865.609375 1256.488281 1854.511719 1256.320312 C 1834.710938 1256.011719 1821.441406 1227.648438 1818.078125 1208.789062 L 1446.800781 1246.371094 L 1384.640625 1250.550781 L 1371.808594 1250.550781 C 1366.96875 1261.28125 1361.089844 1271.511719 1354.03125 1280.988281 C 1336.96875 1303.949219 1312.898438 1322.328125 1284.398438 1327.878906 C 1268.550781 1330.96875 1249.921875 1330.339844 1233.828125 1329.410156 C 1221.390625 1328.699219 1208.988281 1327.558594 1196.578125 1326.589844 C 1163.878906 1324.019531 1140.109375 1294.578125 1131.859375 1264.550781 C 1095.628906 1265.390625 1059.390625 1266.148438 1023.148438 1266.789062 C 988.507812 1267.398438 953.839844 1267.929688 919.191406 1268.050781 C 906.519531 1268.089844 893.828125 1268.089844 881.15625 1267.859375 C 876.773438 1267.78125 872.386719 1267.679688 868.007812 1267.46875 C 865.183594 1267.351562 862.253906 1267.199219 859.453125 1266.820312 C 856.105469 1266.371094 852.789062 1265.738281 849.503906 1264.960938 C 837.65625 1262.179688 826.191406 1257.609375 814.640625 1253.808594 C 801.730469 1249.558594 789.183594 1246.460938 775.808594 1244.808594 C 768.796875 1263.769531 754.429688 1279.511719 737.695312 1290.519531 C 718.511719 1303.148438 695.34375 1310.269531 672.34375 1310.070312 C 647.96875 1309.859375 622.503906 1302.21875 602 1289.058594 C 580.25 1275.101562 564.152344 1255.101562 557.457031 1230.148438 C 554.183594 1230.128906 550.183594 1230.210938 548.691406 1230.738281 C 544.753906 1232.171875 541.257812 1234.03125 537.683594 1236.191406 C 534.390625 1238.179688 531.171875 1240.289062 527.625 1241.820312 C 524.285156 1243.261719 520.90625 1244.070312 517.265625 1244.21875 C 509.566406 1244.539062 501.449219 1245.019531 493.761719 1244.570312 C 488.324219 1244.261719 483.019531 1243.378906 478.238281 1240.621094 C 473.339844 1237.800781 469.785156 1233.441406 466.589844 1228.871094 C 461.996094 1222.308594 457.835938 1215.210938 453.527344 1208.441406 L 451.503906 1205.261719 L 453.863281 1202.320312 C 457.992188 1197.179688 462.058594 1191.308594 465.382812 1185.640625 C 466.949219 1182.96875 471.964844 1173.789062 471.035156 1170.691406 C 470.566406 1169.109375 469.75 1167.359375 469.078125 1165.851562 C 467.816406 1163.03125 466.484375 1160.230469 465.152344 1157.441406 C 461.597656 1149.988281 457.980469 1142.570312 454.503906 1135.078125 C 450.703125 1126.878906 446.863281 1118.390625 443.90625 1109.859375 C 442.097656 1104.640625 438.9375 1095.371094 442.425781 1090.339844 C 454.097656 1073.480469 460.273438 1053.371094 466.757812 1034.121094 C 471.246094 1022.660156 473.957031 1008.808594 489.070312 1008.101562 L 490.566406 990.769531 C 489.695312 989.78125 488.9375 988.679688 488.378906 987.609375 C 485.863281 982.789062 486.421875 977.601562 489.113281 972.96875 C 506.671875 949.628906 520.589844 932.871094 545.621094 916.058594 C 625.105469 862.710938 740.636719 863.808594 833.238281 855.390625 L 839.011719 854.871094 "/>
</clipPath>
<linearGradient id="linear-pattern-0" gradientUnits="userSpaceOnUse" x1="-0.0124409" y1="0" x2="1.102093" y2="0" gradientTransform="matrix(1505.44, -195.606, 195.606, 1505.44, 430.072, 1116.15)">
<stop offset="0" stop-color="rgb(92.701721%, 11.380005%, 15.17334%)" stop-opacity="1"/>
<stop offset="0.0078125" stop-color="rgb(92.701721%, 11.380005%, 15.17334%)" stop-opacity="1"/>
<stop offset="0.0117188" stop-color="rgb(92.520142%, 11.367798%, 15.150452%)" stop-opacity="1"/>
<stop offset="0.015625" stop-color="rgb(92.340088%, 11.352539%, 15.127563%)" stop-opacity="1"/>
<stop offset="0.0195313" stop-color="rgb(92.024231%, 11.329651%, 15.087891%)" stop-opacity="1"/>
<stop offset="0.0234375" stop-color="rgb(91.708374%, 11.306763%, 15.049744%)" stop-opacity="1"/>
<stop offset="0.0273438" stop-color="rgb(91.331482%, 11.283875%, 14.964294%)" stop-opacity="1"/>
<stop offset="0.03125" stop-color="rgb(90.95459%, 11.260986%, 14.880371%)" stop-opacity="1"/>
<stop offset="0.0351563" stop-color="rgb(90.556335%, 11.238098%, 14.782715%)" stop-opacity="1"/>
<stop offset="0.0390625" stop-color="rgb(90.159607%, 11.21521%, 14.685059%)" stop-opacity="1"/>
<stop offset="0.0429688" stop-color="rgb(89.846802%, 11.276245%, 14.630127%)" stop-opacity="1"/>
<stop offset="0.046875" stop-color="rgb(89.532471%, 11.335754%, 14.575195%)" stop-opacity="1"/>
<stop offset="0.0507813" stop-color="rgb(89.216614%, 11.398315%, 14.530945%)" stop-opacity="1"/>
<stop offset="0.0546875" stop-color="rgb(88.902283%, 11.460876%, 14.485168%)" stop-opacity="1"/>
<stop offset="0.0585938" stop-color="rgb(88.513184%, 11.49292%, 14.505005%)" stop-opacity="1"/>
<stop offset="0.0625" stop-color="rgb(88.122559%, 11.523438%, 14.524841%)" stop-opacity="1"/>
<stop offset="0.0664063" stop-color="rgb(87.734985%, 11.555481%, 14.544678%)" stop-opacity="1"/>
<stop offset="0.0703125" stop-color="rgb(87.345886%, 11.585999%, 14.562988%)" stop-opacity="1"/>
<stop offset="0.0742188" stop-color="rgb(86.958313%, 11.616516%, 14.582825%)" stop-opacity="1"/>
<stop offset="0.078125" stop-color="rgb(86.57074%, 11.647034%, 14.602661%)" stop-opacity="1"/>
<stop offset="0.0820313" stop-color="rgb(86.184692%, 11.679077%, 14.620972%)" stop-opacity="1"/>
<stop offset="0.0859375" stop-color="rgb(85.798645%, 11.709595%, 14.640808%)" stop-opacity="1"/>
<stop offset="0.0898438" stop-color="rgb(85.412598%, 11.740112%, 14.659119%)" stop-opacity="1"/>
<stop offset="0.09375" stop-color="rgb(85.028076%, 11.77063%, 14.677429%)" stop-opacity="1"/>
<stop offset="0.0976563" stop-color="rgb(84.692383%, 11.793518%, 14.691162%)" stop-opacity="1"/>
<stop offset="0.101563" stop-color="rgb(84.355164%, 11.816406%, 14.704895%)" stop-opacity="1"/>
<stop offset="0.105469" stop-color="rgb(84.048462%, 11.836243%, 14.71405%)" stop-opacity="1"/>
<stop offset="0.109375" stop-color="rgb(83.74176%, 11.856079%, 14.724731%)" stop-opacity="1"/>
<stop offset="0.113281" stop-color="rgb(83.309937%, 11.872864%, 14.727783%)" stop-opacity="1"/>
<stop offset="0.117188" stop-color="rgb(82.879639%, 11.891174%, 14.732361%)" stop-opacity="1"/>
<stop offset="0.121094" stop-color="rgb(82.420349%, 11.906433%, 14.733887%)" stop-opacity="1"/>
<stop offset="0.125" stop-color="rgb(81.962585%, 11.923218%, 14.735413%)" stop-opacity="1"/>
<stop offset="0.128906" stop-color="rgb(81.504822%, 11.915588%, 14.71405%)" stop-opacity="1"/>
<stop offset="0.132813" stop-color="rgb(81.045532%, 11.907959%, 14.689636%)" stop-opacity="1"/>
<stop offset="0.136719" stop-color="rgb(80.603027%, 11.898804%, 14.665222%)" stop-opacity="1"/>
<stop offset="0.140625" stop-color="rgb(80.158997%, 11.889648%, 14.640808%)" stop-opacity="1"/>
<stop offset="0.144531" stop-color="rgb(79.779053%, 11.869812%, 14.608765%)" stop-opacity="1"/>
<stop offset="0.148438" stop-color="rgb(79.399109%, 11.851501%, 14.575195%)" stop-opacity="1"/>
<stop offset="0.152344" stop-color="rgb(78.971863%, 11.839294%, 14.549255%)" stop-opacity="1"/>
<stop offset="0.15625" stop-color="rgb(78.543091%, 11.827087%, 14.52179%)" stop-opacity="1"/>
<stop offset="0.160156" stop-color="rgb(78.019714%, 11.827087%, 14.506531%)" stop-opacity="1"/>
<stop offset="0.164063" stop-color="rgb(77.497864%, 11.828613%, 14.489746%)" stop-opacity="1"/>
<stop offset="0.167969" stop-color="rgb(77.017212%, 11.824036%, 14.468384%)" stop-opacity="1"/>
<stop offset="0.171875" stop-color="rgb(76.535034%, 11.817932%, 14.447021%)" stop-opacity="1"/>
<stop offset="0.175781" stop-color="rgb(76.091003%, 11.808777%, 14.422607%)" stop-opacity="1"/>
<stop offset="0.179688" stop-color="rgb(75.646973%, 11.798096%, 14.396667%)" stop-opacity="1"/>
<stop offset="0.183594" stop-color="rgb(75.204468%, 11.77063%, 14.353943%)" stop-opacity="1"/>
<stop offset="0.1875" stop-color="rgb(74.760437%, 11.743164%, 14.311218%)" stop-opacity="1"/>
<stop offset="0.191406" stop-color="rgb(74.317932%, 11.708069%, 14.260864%)" stop-opacity="1"/>
<stop offset="0.195313" stop-color="rgb(73.876953%, 11.672974%, 14.208984%)" stop-opacity="1"/>
<stop offset="0.199219" stop-color="rgb(73.440552%, 11.659241%, 14.179993%)" stop-opacity="1"/>
<stop offset="0.203125" stop-color="rgb(73.002625%, 11.643982%, 14.151001%)" stop-opacity="1"/>
<stop offset="0.207031" stop-color="rgb(72.567749%, 11.631775%, 14.122009%)" stop-opacity="1"/>
<stop offset="0.210938" stop-color="rgb(72.134399%, 11.618042%, 14.094543%)" stop-opacity="1"/>
<stop offset="0.214844" stop-color="rgb(71.699524%, 11.581421%, 14.042664%)" stop-opacity="1"/>
<stop offset="0.21875" stop-color="rgb(71.266174%, 11.546326%, 13.990784%)" stop-opacity="1"/>
<stop offset="0.222656" stop-color="rgb(70.849609%, 11.512756%, 13.943481%)" stop-opacity="1"/>
<stop offset="0.226563" stop-color="rgb(70.433044%, 11.479187%, 13.894653%)" stop-opacity="1"/>
<stop offset="0.230469" stop-color="rgb(70.075989%, 11.456299%, 13.859558%)" stop-opacity="1"/>
<stop offset="0.234375" stop-color="rgb(69.718933%, 11.433411%, 13.822937%)" stop-opacity="1"/>
<stop offset="0.238281" stop-color="rgb(69.276428%, 11.402893%, 13.777161%)" stop-opacity="1"/>
<stop offset="0.242188" stop-color="rgb(68.833923%, 11.372375%, 13.731384%)" stop-opacity="1"/>
<stop offset="0.246094" stop-color="rgb(68.267822%, 11.329651%, 13.668823%)" stop-opacity="1"/>
<stop offset="0.25" stop-color="rgb(67.703247%, 11.286926%, 13.606262%)" stop-opacity="1"/>
<stop offset="0.253906" stop-color="rgb(67.221069%, 11.247253%, 13.548279%)" stop-opacity="1"/>
<stop offset="0.257813" stop-color="rgb(66.738892%, 11.206055%, 13.491821%)" stop-opacity="1"/>
<stop offset="0.261719" stop-color="rgb(66.319275%, 11.167908%, 13.43689%)" stop-opacity="1"/>
<stop offset="0.265625" stop-color="rgb(65.898132%, 11.129761%, 13.383484%)" stop-opacity="1"/>
<stop offset="0.269531" stop-color="rgb(65.480042%, 11.090088%, 13.330078%)" stop-opacity="1"/>
<stop offset="0.273438" stop-color="rgb(65.061951%, 11.051941%, 13.275146%)" stop-opacity="1"/>
<stop offset="0.277344" stop-color="rgb(64.645386%, 11.012268%, 13.220215%)" stop-opacity="1"/>
<stop offset="0.28125" stop-color="rgb(64.228821%, 10.972595%, 13.166809%)" stop-opacity="1"/>
<stop offset="0.285156" stop-color="rgb(63.813782%, 10.932922%, 13.111877%)" stop-opacity="1"/>
<stop offset="0.289063" stop-color="rgb(63.400269%, 10.89325%, 13.056946%)" stop-opacity="1"/>
<stop offset="0.292969" stop-color="rgb(62.986755%, 10.850525%, 12.998962%)" stop-opacity="1"/>
<stop offset="0.296875" stop-color="rgb(62.574768%, 10.8078%, 12.940979%)" stop-opacity="1"/>
<stop offset="0.300781" stop-color="rgb(62.159729%, 10.743713%, 12.861633%)" stop-opacity="1"/>
<stop offset="0.304688" stop-color="rgb(61.743164%, 10.679626%, 12.782288%)" stop-opacity="1"/>
<stop offset="0.308594" stop-color="rgb(61.349487%, 10.620117%, 12.70752%)" stop-opacity="1"/>
<stop offset="0.3125" stop-color="rgb(60.954285%, 10.560608%, 12.632751%)" stop-opacity="1"/>
<stop offset="0.316406" stop-color="rgb(60.610962%, 10.51178%, 12.57019%)" stop-opacity="1"/>
<stop offset="0.320313" stop-color="rgb(60.269165%, 10.461426%, 12.507629%)" stop-opacity="1"/>
<stop offset="0.324219" stop-color="rgb(59.895325%, 10.404968%, 12.435913%)" stop-opacity="1"/>
<stop offset="0.328125" stop-color="rgb(59.519958%, 10.348511%, 12.365723%)" stop-opacity="1"/>
<stop offset="0.332031" stop-color="rgb(59.109497%, 10.284424%, 12.284851%)" stop-opacity="1"/>
<stop offset="0.335938" stop-color="rgb(58.699036%, 10.218811%, 12.203979%)" stop-opacity="1"/>
<stop offset="0.339844" stop-color="rgb(58.250427%, 10.159302%, 12.127686%)" stop-opacity="1"/>
<stop offset="0.34375" stop-color="rgb(57.801819%, 10.099792%, 12.051392%)" stop-opacity="1"/>
<stop offset="0.347656" stop-color="rgb(57.333374%, 10.043335%, 11.976624%)" stop-opacity="1"/>
<stop offset="0.351563" stop-color="rgb(56.866455%, 9.985352%, 11.903381%)" stop-opacity="1"/>
<stop offset="0.355469" stop-color="rgb(56.45752%, 9.939575%, 11.842346%)" stop-opacity="1"/>
<stop offset="0.359375" stop-color="rgb(56.048584%, 9.895325%, 11.781311%)" stop-opacity="1"/>
<stop offset="0.363281" stop-color="rgb(55.654907%, 9.851074%, 11.724854%)" stop-opacity="1"/>
<stop offset="0.367188" stop-color="rgb(55.26123%, 9.80835%, 11.66687%)" stop-opacity="1"/>
<stop offset="0.371094" stop-color="rgb(54.859924%, 9.742737%, 11.585999%)" stop-opacity="1"/>
<stop offset="0.375" stop-color="rgb(54.457092%, 9.675598%, 11.503601%)" stop-opacity="1"/>
<stop offset="0.378906" stop-color="rgb(54.057312%, 9.609985%, 11.421204%)" stop-opacity="1"/>
<stop offset="0.382813" stop-color="rgb(53.657532%, 9.542847%, 11.340332%)" stop-opacity="1"/>
<stop offset="0.386719" stop-color="rgb(53.257751%, 9.475708%, 11.257935%)" stop-opacity="1"/>
<stop offset="0.390625" stop-color="rgb(52.859497%, 9.410095%, 11.175537%)" stop-opacity="1"/>
<stop offset="0.394531" stop-color="rgb(52.416992%, 9.339905%, 11.088562%)" stop-opacity="1"/>
<stop offset="0.398438" stop-color="rgb(51.976013%, 9.27124%, 11.003113%)" stop-opacity="1"/>
<stop offset="0.402344" stop-color="rgb(51.455688%, 9.196472%, 10.908508%)" stop-opacity="1"/>
<stop offset="0.40625" stop-color="rgb(50.93689%, 9.120178%, 10.813904%)" stop-opacity="1"/>
<stop offset="0.410156" stop-color="rgb(50.486755%, 9.049988%, 10.725403%)" stop-opacity="1"/>
<stop offset="0.414063" stop-color="rgb(50.035095%, 8.978271%, 10.636902%)" stop-opacity="1"/>
<stop offset="0.417969" stop-color="rgb(49.642944%, 8.911133%, 10.554504%)" stop-opacity="1"/>
<stop offset="0.421875" stop-color="rgb(49.250793%, 8.842468%, 10.470581%)" stop-opacity="1"/>
<stop offset="0.425781" stop-color="rgb(48.820496%, 8.7677%, 10.449219%)" stop-opacity="1"/>
<stop offset="0.429688" stop-color="rgb(48.390198%, 8.692932%, 10.424805%)" stop-opacity="1"/>
<stop offset="0.433594" stop-color="rgb(47.947693%, 8.615112%, 10.423279%)" stop-opacity="1"/>
<stop offset="0.4375" stop-color="rgb(47.503662%, 8.537292%, 10.421753%)" stop-opacity="1"/>
<stop offset="0.441406" stop-color="rgb(47.111511%, 8.47168%, 10.322571%)" stop-opacity="1"/>
<stop offset="0.445313" stop-color="rgb(46.71936%, 8.407593%, 10.223389%)" stop-opacity="1"/>
<stop offset="0.449219" stop-color="rgb(46.330261%, 8.345032%, 10.112%)" stop-opacity="1"/>
<stop offset="0.453125" stop-color="rgb(45.942688%, 8.280945%, 10.002136%)" stop-opacity="1"/>
<stop offset="0.457031" stop-color="rgb(45.507812%, 8.224487%, 9.896851%)" stop-opacity="1"/>
<stop offset="0.460938" stop-color="rgb(45.074463%, 8.166504%, 9.791565%)" stop-opacity="1"/>
<stop offset="0.464844" stop-color="rgb(44.638062%, 8.100891%, 9.698486%)" stop-opacity="1"/>
<stop offset="0.46875" stop-color="rgb(44.203186%, 8.033752%, 9.605408%)" stop-opacity="1"/>
<stop offset="0.472656" stop-color="rgb(43.756104%, 7.939148%, 9.54895%)" stop-opacity="1"/>
<stop offset="0.476563" stop-color="rgb(43.309021%, 7.844543%, 9.490967%)" stop-opacity="1"/>
<stop offset="0.480469" stop-color="rgb(42.840576%, 7.781982%, 9.47876%)" stop-opacity="1"/>
<stop offset="0.484375" stop-color="rgb(42.373657%, 7.717896%, 9.465027%)" stop-opacity="1"/>
<stop offset="0.488281" stop-color="rgb(41.874695%, 7.696533%, 9.515381%)" stop-opacity="1"/>
<stop offset="0.492188" stop-color="rgb(41.378784%, 7.676697%, 9.562683%)" stop-opacity="1"/>
<stop offset="0.496094" stop-color="rgb(40.922546%, 7.65686%, 9.645081%)" stop-opacity="1"/>
<stop offset="0.5" stop-color="rgb(40.467834%, 7.63855%, 9.724426%)" stop-opacity="1"/>
<stop offset="0.503906" stop-color="rgb(40.042114%, 7.621765%, 9.82666%)" stop-opacity="1"/>
<stop offset="0.507813" stop-color="rgb(39.614868%, 7.603455%, 9.927368%)" stop-opacity="1"/>
<stop offset="0.511719" stop-color="rgb(39.144897%, 7.559204%, 9.909058%)" stop-opacity="1"/>
<stop offset="0.515625" stop-color="rgb(38.674927%, 7.513428%, 9.887695%)" stop-opacity="1"/>
<stop offset="0.519531" stop-color="rgb(38.194275%, 7.458496%, 9.831238%)" stop-opacity="1"/>
<stop offset="0.523438" stop-color="rgb(37.713623%, 7.403564%, 9.773254%)" stop-opacity="1"/>
<stop offset="0.527344" stop-color="rgb(37.30011%, 7.3349%, 9.675598%)" stop-opacity="1"/>
<stop offset="0.53125" stop-color="rgb(36.886597%, 7.264709%, 9.577942%)" stop-opacity="1"/>
<stop offset="0.535156" stop-color="rgb(36.483765%, 7.202148%, 9.484863%)" stop-opacity="1"/>
<stop offset="0.539063" stop-color="rgb(36.080933%, 7.139587%, 9.390259%)" stop-opacity="1"/>
<stop offset="0.542969" stop-color="rgb(35.714722%, 7.133484%, 9.344482%)" stop-opacity="1"/>
<stop offset="0.546875" stop-color="rgb(35.346985%, 7.124329%, 9.29718%)" stop-opacity="1"/>
<stop offset="0.550781" stop-color="rgb(34.922791%, 7.145691%, 9.275818%)" stop-opacity="1"/>
<stop offset="0.554688" stop-color="rgb(34.49707%, 7.164001%, 9.25293%)" stop-opacity="1"/>
<stop offset="0.558594" stop-color="rgb(33.937073%, 7.246399%, 9.289551%)" stop-opacity="1"/>
<stop offset="0.5625" stop-color="rgb(33.378601%, 7.325745%, 9.324646%)" stop-opacity="1"/>
<stop offset="0.566406" stop-color="rgb(32.821655%, 7.435608%, 9.367371%)" stop-opacity="1"/>
<stop offset="0.570312" stop-color="rgb(32.267761%, 7.539368%, 9.408569%)" stop-opacity="1"/>
<stop offset="0.574219" stop-color="rgb(31.713867%, 7.676697%, 9.458923%)" stop-opacity="1"/>
<stop offset="0.578125" stop-color="rgb(31.164551%, 7.807922%, 9.509277%)" stop-opacity="1"/>
<stop offset="0.582031" stop-color="rgb(30.636597%, 7.881165%, 9.54895%)" stop-opacity="1"/>
<stop offset="0.585938" stop-color="rgb(30.111694%, 7.951355%, 9.584045%)" stop-opacity="1"/>
<stop offset="0.589844" stop-color="rgb(29.600525%, 7.989502%, 9.614563%)" stop-opacity="1"/>
<stop offset="0.59375" stop-color="rgb(29.090881%, 8.024597%, 9.640503%)" stop-opacity="1"/>
<stop offset="0.597656" stop-color="rgb(28.569031%, 8.044434%, 9.594727%)" stop-opacity="1"/>
<stop offset="0.601563" stop-color="rgb(28.050232%, 8.059692%, 9.547424%)" stop-opacity="1"/>
<stop offset="0.605469" stop-color="rgb(27.532959%, 8.068848%, 9.483337%)" stop-opacity="1"/>
<stop offset="0.609375" stop-color="rgb(27.017212%, 8.071899%, 9.417725%)" stop-opacity="1"/>
<stop offset="0.613281" stop-color="rgb(26.603699%, 8.065796%, 9.336853%)" stop-opacity="1"/>
<stop offset="0.617188" stop-color="rgb(26.191711%, 8.055115%, 9.25293%)" stop-opacity="1"/>
<stop offset="0.621094" stop-color="rgb(25.784302%, 8.036804%, 9.172058%)" stop-opacity="1"/>
<stop offset="0.625" stop-color="rgb(25.376892%, 8.013916%, 9.089661%)" stop-opacity="1"/>
<stop offset="0.628906" stop-color="rgb(24.975586%, 7.965088%, 9.016418%)" stop-opacity="1"/>
<stop offset="0.632813" stop-color="rgb(24.57428%, 7.911682%, 8.94165%)" stop-opacity="1"/>
<stop offset="0.636719" stop-color="rgb(24.14856%, 7.891846%, 8.885193%)" stop-opacity="1"/>
<stop offset="0.640625" stop-color="rgb(23.724365%, 7.868958%, 8.825684%)" stop-opacity="1"/>
<stop offset="0.644531" stop-color="rgb(23.25592%, 7.899475%, 8.798218%)" stop-opacity="1"/>
<stop offset="0.648438" stop-color="rgb(22.787476%, 7.925415%, 8.769226%)" stop-opacity="1"/>
<stop offset="0.652344" stop-color="rgb(22.343445%, 7.948303%, 8.728027%)" stop-opacity="1"/>
<stop offset="0.65625" stop-color="rgb(21.902466%, 7.965088%, 8.685303%)" stop-opacity="1"/>
<stop offset="0.660156" stop-color="rgb(21.479797%, 7.980347%, 8.631897%)" stop-opacity="1"/>
<stop offset="0.664062" stop-color="rgb(21.060181%, 7.991028%, 8.578491%)" stop-opacity="1"/>
<stop offset="0.667969" stop-color="rgb(20.684814%, 7.997131%, 8.529663%)" stop-opacity="1"/>
<stop offset="0.671875" stop-color="rgb(20.310974%, 8.000183%, 8.479309%)" stop-opacity="1"/>
<stop offset="0.675781" stop-color="rgb(19.95697%, 8.001709%, 8.433533%)" stop-opacity="1"/>
<stop offset="0.679688" stop-color="rgb(19.604492%, 8.000183%, 8.384705%)" stop-opacity="1"/>
<stop offset="0.683594" stop-color="rgb(19.224548%, 7.995605%, 8.349609%)" stop-opacity="1"/>
<stop offset="0.6875" stop-color="rgb(18.849182%, 7.987976%, 8.314514%)" stop-opacity="1"/>
<stop offset="0.691406" stop-color="rgb(18.481445%, 7.978821%, 8.279419%)" stop-opacity="1"/>
<stop offset="0.695313" stop-color="rgb(18.11676%, 7.966614%, 8.241272%)" stop-opacity="1"/>
<stop offset="0.699219" stop-color="rgb(17.861938%, 7.955933%, 8.197021%)" stop-opacity="1"/>
<stop offset="0.703125" stop-color="rgb(17.608643%, 7.943726%, 8.152771%)" stop-opacity="1"/>
<stop offset="0.707031" stop-color="rgb(17.356873%, 7.929993%, 8.110046%)" stop-opacity="1"/>
<stop offset="0.710938" stop-color="rgb(17.106628%, 7.914734%, 8.067322%)" stop-opacity="1"/>
<stop offset="0.714844" stop-color="rgb(16.85791%, 7.897949%, 8.035278%)" stop-opacity="1"/>
<stop offset="0.71875" stop-color="rgb(16.609192%, 7.878113%, 8.000183%)" stop-opacity="1"/>
<stop offset="0.722656" stop-color="rgb(16.377258%, 7.849121%, 7.957458%)" stop-opacity="1"/>
<stop offset="0.726563" stop-color="rgb(16.145325%, 7.818604%, 7.911682%)" stop-opacity="1"/>
<stop offset="0.730469" stop-color="rgb(15.933228%, 7.774353%, 7.853699%)" stop-opacity="1"/>
<stop offset="0.734375" stop-color="rgb(15.722656%, 7.728577%, 7.794189%)" stop-opacity="1"/>
<stop offset="0.738281" stop-color="rgb(15.4953%, 7.684326%, 7.728577%)" stop-opacity="1"/>
<stop offset="0.742188" stop-color="rgb(15.267944%, 7.637024%, 7.661438%)" stop-opacity="1"/>
<stop offset="0.746094" stop-color="rgb(15.032959%, 7.589722%, 7.589722%)" stop-opacity="1"/>
<stop offset="0.75" stop-color="rgb(14.796448%, 7.542419%, 7.518005%)" stop-opacity="1"/>
<stop offset="0.753906" stop-color="rgb(14.520264%, 7.493591%, 7.43866%)" stop-opacity="1"/>
<stop offset="0.757813" stop-color="rgb(14.245605%, 7.443237%, 7.359314%)" stop-opacity="1"/>
<stop offset="0.761719" stop-color="rgb(13.960266%, 7.391357%, 7.276917%)" stop-opacity="1"/>
<stop offset="0.765625" stop-color="rgb(13.676453%, 7.339478%, 7.194519%)" stop-opacity="1"/>
<stop offset="0.769531" stop-color="rgb(13.441467%, 7.313538%, 7.168579%)" stop-opacity="1"/>
<stop offset="0.773438" stop-color="rgb(13.206482%, 7.287598%, 7.144165%)" stop-opacity="1"/>
<stop offset="0.777344" stop-color="rgb(12.982178%, 7.272339%, 7.124329%)" stop-opacity="1"/>
<stop offset="0.78125" stop-color="rgb(12.757874%, 7.254028%, 7.106018%)" stop-opacity="1"/>
<stop offset="0.785156" stop-color="rgb(12.57019%, 7.298279%, 7.118225%)" stop-opacity="1"/>
<stop offset="0.789063" stop-color="rgb(12.382507%, 7.341003%, 7.128906%)" stop-opacity="1"/>
<stop offset="0.792969" stop-color="rgb(12.184143%, 7.365417%, 7.131958%)" stop-opacity="1"/>
<stop offset="0.796875" stop-color="rgb(11.985779%, 7.389832%, 7.13501%)" stop-opacity="1"/>
<stop offset="0.800781" stop-color="rgb(11.759949%, 7.377625%, 7.115173%)" stop-opacity="1"/>
<stop offset="0.804688" stop-color="rgb(11.53717%, 7.363892%, 7.095337%)" stop-opacity="1"/>
<stop offset="0.808594" stop-color="rgb(11.326599%, 7.350159%, 7.069397%)" stop-opacity="1"/>
<stop offset="0.8125" stop-color="rgb(11.11908%, 7.3349%, 7.041931%)" stop-opacity="1"/>
<stop offset="0.816406" stop-color="rgb(10.925293%, 7.319641%, 7.006836%)" stop-opacity="1"/>
<stop offset="0.820312" stop-color="rgb(10.733032%, 7.302856%, 6.971741%)" stop-opacity="1"/>
<stop offset="0.824219" stop-color="rgb(10.527039%, 7.272339%, 6.933594%)" stop-opacity="1"/>
<stop offset="0.828125" stop-color="rgb(10.322571%, 7.241821%, 6.893921%)" stop-opacity="1"/>
<stop offset="0.832031" stop-color="rgb(10.112%, 7.203674%, 6.852722%)" stop-opacity="1"/>
<stop offset="0.835938" stop-color="rgb(9.901428%, 7.165527%, 6.811523%)" stop-opacity="1"/>
<stop offset="0.839844" stop-color="rgb(9.661865%, 7.098389%, 6.718445%)" stop-opacity="1"/>
<stop offset="0.84375" stop-color="rgb(9.422302%, 7.029724%, 6.62384%)" stop-opacity="1"/>
<stop offset="0.847656" stop-color="rgb(9.181213%, 6.956482%, 6.521606%)" stop-opacity="1"/>
<stop offset="0.851563" stop-color="rgb(8.94165%, 6.881714%, 6.419373%)" stop-opacity="1"/>
<stop offset="0.855469" stop-color="rgb(8.766174%, 6.840515%, 6.362915%)" stop-opacity="1"/>
<stop offset="0.859375" stop-color="rgb(8.590698%, 6.799316%, 6.306458%)" stop-opacity="1"/>
<stop offset="0.863281" stop-color="rgb(8.418274%, 6.750488%, 6.245422%)" stop-opacity="1"/>
<stop offset="0.867188" stop-color="rgb(8.247375%, 6.70166%, 6.182861%)" stop-opacity="1"/>
<stop offset="0.871094" stop-color="rgb(8.081055%, 6.626892%, 6.103516%)" stop-opacity="1"/>
<stop offset="0.875" stop-color="rgb(7.914734%, 6.55365%, 6.022644%)" stop-opacity="1"/>
<stop offset="0.878906" stop-color="rgb(7.737732%, 6.471252%, 5.929565%)" stop-opacity="1"/>
<stop offset="0.882813" stop-color="rgb(7.56073%, 6.390381%, 5.836487%)" stop-opacity="1"/>
<stop offset="0.886719" stop-color="rgb(7.362366%, 6.295776%, 5.725098%)" stop-opacity="1"/>
<stop offset="0.890625" stop-color="rgb(7.165527%, 6.201172%, 5.610657%)" stop-opacity="1"/>
<stop offset="0.894531" stop-color="rgb(6.971741%, 6.105042%, 5.493164%)" stop-opacity="1"/>
<stop offset="0.898438" stop-color="rgb(6.77948%, 6.010437%, 5.374146%)" stop-opacity="1"/>
<stop offset="0.902344" stop-color="rgb(6.588745%, 5.914307%, 5.252075%)" stop-opacity="1"/>
<stop offset="0.90625" stop-color="rgb(6.399536%, 5.818176%, 5.128479%)" stop-opacity="1"/>
<stop offset="0.9375" stop-color="rgb(6.347656%, 5.79071%, 5.09491%)" stop-opacity="1"/>
<stop offset="1" stop-color="rgb(6.295776%, 5.764771%, 5.06134%)" stop-opacity="1"/>
</linearGradient>
</defs>

<g clip-path="url(#clip-0)">
<g clip-path="url(#clip-1)">
<path fill-rule="nonzero" fill="url(#linear-pattern-0)" d="M 354.398438 680.316406 L 465.839844 1537.996094 L 2143.703125 1319.984375 L 2032.261719 462.304688 Z M 354.398438 680.316406 "/>
</g>
</g>
<path fill-rule="evenodd" fill="rgb(100%, 100%, 100%)" fill-opacity="1" d="M 1340.898438 1197.738281 C 1338.46875 1207.101562 1335.300781 1215.921875 1331.550781 1224.03125 L 1301.941406 1186.261719 C 1303.140625 1184.191406 1304.078125 1181.769531 1304.699219 1179.121094 Z M 1346.050781 1154.550781 C 1346.191406 1160.320312 1345.980469 1166.269531 1345.398438 1172.351562 C 1331.988281 1172.378906 1316.539062 1172.371094 1305.5 1172.28125 L 1305.511719 1171.921875 C 1305.511719 1170.378906 1305.398438 1168.878906 1305.199219 1167.429688 C 1316.191406 1164.019531 1331.789062 1159.128906 1346.050781 1154.550781 Z M 1336.378906 1110.230469 C 1339.421875 1116.53125 1341.800781 1123.679688 1343.441406 1131.441406 L 1303.859375 1161.820312 C 1303.269531 1160.109375 1302.53125 1158.539062 1301.671875 1157.128906 Z M 1245.839844 1097.839844 C 1252.421875 1083.789062 1260.710938 1072 1270.070312 1063.351562 L 1274.039062 1085 C 1270.140625 1088.390625 1266.378906 1092.308594 1262.808594 1096.71875 C 1266.628906 1093.308594 1270.578125 1090.429688 1274.621094 1088.121094 L 1286.140625 1150.960938 C 1284.238281 1151.859375 1282.519531 1153.320312 1281.039062 1155.199219 C 1270.601562 1138.101562 1254.371094 1112.089844 1245.839844 1097.839844 Z M 1229.96875 1165.660156 C 1230.039062 1164.070312 1230.121094 1162.488281 1230.230469 1160.898438 C 1230.980469 1149.671875 1232.671875 1138.859375 1235.128906 1128.679688 C 1237.171875 1130.050781 1239.578125 1131.769531 1242.21875 1133.710938 C 1240.898438 1141.441406 1241.300781 1150.519531 1242.660156 1158.859375 C 1242.660156 1158.859375 1245.371094 1145.429688 1248.820312 1138.648438 C 1258.320312 1145.871094 1269.320312 1154.628906 1277.679688 1161.359375 C 1276.679688 1164.078125 1276.058594 1167.140625 1275.910156 1170.390625 Z M 1251.980469 1256.300781 C 1243.710938 1244.339844 1237.378906 1228.980469 1233.628906 1211.5 L 1245.96875 1202.941406 C 1248.910156 1209.339844 1253.28125 1215.859375 1257.898438 1221.648438 C 1257.898438 1221.648438 1252.078125 1203.738281 1253.570312 1197.671875 L 1277.261719 1181.238281 C 1278.351562 1184.691406 1280.019531 1187.660156 1282.089844 1189.859375 C 1273.46875 1209.238281 1260.390625 1239.558594 1251.980469 1256.300781 Z M 1320.070312 1276.609375 C 1311.679688 1281.320312 1302.730469 1283.640625 1293.578125 1283.078125 C 1290.21875 1282.871094 1286.949219 1282.28125 1283.761719 1281.339844 L 1289.300781 1193.851562 C 1289.761719 1193.910156 1290.21875 1193.941406 1290.691406 1193.941406 C 1292.558594 1193.941406 1294.351562 1193.429688 1296 1192.488281 C 1302.578125 1217.648438 1313.699219 1259.070312 1320.070312 1276.609375 Z M 1365.558594 1210.410156 C 1361.519531 1224.070312 1356.019531 1236.390625 1349.460938 1246.859375 L 1334.210938 1227.429688 C 1339.121094 1219.488281 1343.429688 1210.550781 1346.929688 1200.828125 Z M 1372.921875 1145.648438 C 1373.359375 1153.421875 1373.328125 1161.429688 1372.78125 1169.601562 C 1372.71875 1170.46875 1372.660156 1171.328125 1372.589844 1172.191406 C 1369.960938 1172.238281 1363.070312 1172.289062 1354.328125 1172.320312 C 1355.519531 1165.128906 1356.199219 1158.058594 1356.390625 1151.199219 C 1362.78125 1149.109375 1368.519531 1147.191406 1372.921875 1145.648438 Z M 1356.46875 1083.058594 C 1361.210938 1091.761719 1365.078125 1101.75 1367.890625 1112.679688 L 1354.320312 1123.101562 C 1352.53125 1113.550781 1349.660156 1104.878906 1345.820312 1097.460938 Z M 1327.488281 1076.398438 C 1323.71875 1074.039062 1319.640625 1072.351562 1315.28125 1071.429688 C 1309.890625 1070.300781 1304.421875 1070.398438 1298.980469 1071.609375 L 1301.128906 1047.710938 C 1303.871094 1047.351562 1306.640625 1047.25 1309.429688 1047.421875 C 1318.621094 1047.980469 1327.199219 1051.390625 1334.910156 1057.109375 Z M 1291.929688 1149.96875 L 1298.078125 1081.601562 C 1300.371094 1081.648438 1302.648438 1081.910156 1304.921875 1082.390625 C 1311.210938 1083.710938 1316.910156 1086.628906 1321.929688 1090.871094 L 1298.101562 1152.839844 C 1296.261719 1151.261719 1294.160156 1150.25 1291.929688 1149.96875 Z M 471.75 1035.808594 C 465.082031 1055.609375 458.773438 1075.980469 446.757812 1093.339844 C 441.164062 1101.421875 473.0625 1159.039062 476.085938 1169.191406 C 479.109375 1179.320312 457.972656 1205.621094 457.972656 1205.621094 C 479.816406 1239.941406 476.300781 1240.648438 517.046875 1238.960938 C 528.226562 1238.5 533.304688 1230.730469 546.890625 1225.789062 C 549.019531 1225.011719 554.191406 1224.78125 561.605469 1224.949219 C 573.425781 1278.011719 628.164062 1304.421875 672.390625 1304.800781 C 717.164062 1305.199219 760.773438 1276.488281 772.171875 1239.109375 C 812.382812 1243.089844 833.804688 1258.039062 860.15625 1261.601562 C 882.527344 1264.621094 1049.050781 1261.210938 1135.941406 1259.191406 C 1142.550781 1288.429688 1165.25 1318.851562 1196.988281 1321.328125 C 1223.671875 1323.421875 1259.96875 1327.28125 1283.390625 1322.710938 C 1332.148438 1313.199219 1378.128906 1261.039062 1384.21875 1177.351562 C 1390.300781 1093.660156 1355.019531 1023.050781 1305.421875 1019.640625 C 1254.359375 1016.128906 1210.828125 1078.898438 1191.980469 1148.429688 C 1197.46875 1111.160156 1211.121094 1073.679688 1223.640625 1059.890625 L 1159.839844 1024.070312 C 1070.949219 1045.269531 923.472656 1061.339844 844.09375 1090.460938 C 830.65625 1095.390625 799.011719 1204.03125 767.628906 1219.710938 C 756.925781 1225.070312 688.691406 1221.878906 675.523438 1221.460938 C 662.347656 1221.050781 556.964844 1214.050781 547.085938 1209.53125 C 522.4375 1198.230469 496.933594 1106.578125 490.894531 1075.941406 C 487.40625 1058.25 476.199219 1054.601562 471.75 1035.808594 Z M 503.570312 962.519531 C 507.203125 993.738281 826.894531 981.359375 872.621094 982.070312 C 925.3125 982.890625 1072.890625 969.71875 1072.890625 969.71875 C 1123.21875 918.429688 1288.050781 922.558594 1353.378906 898.421875 C 1372.320312 891.421875 1368.25 865.570312 1364.960938 863.929688 C 1361.941406 862.421875 1229.429688 866.78125 1165.421875 864.988281 C 1085.53125 871.640625 974.703125 902.660156 933.898438 930.03125 C 975.8125 894.46875 1068.390625 870.96875 1142.851562 864.019531 C 1094.648438 862.300781 960.953125 866.480469 890.5 868.328125 C 827.820312 878.878906 733.570312 899.078125 673.109375 925.601562 C 693.132812 905.199219 801.695312 879.039062 859.445312 869.050781 C 852.417969 869.171875 847.796875 869.191406 846.273438 869.070312 C 833.304688 868.039062 833.71875 860.640625 833.71875 860.640625 C 719.664062 871.011719 576.265625 867.320312 503.570312 962.519531 Z M 859.140625 859.488281 C 1093.789062 848.371094 1402.941406 857.421875 1402.941406 857.421875 C 1428.230469 808.109375 1451.449219 761.851562 1483.210938 716.230469 C 1483.210938 716.230469 1202.460938 712.519531 1134.539062 714.578125 C 1034.339844 717.621094 932.339844 797.550781 859.140625 859.488281 Z M 1414.878906 857.820312 C 1414.878906 857.820312 1458.03125 762.671875 1487.730469 727.011719 C 1515.96875 693.078125 1582.988281 691.300781 1629.351562 698.101562 C 1649.308594 731.089844 1676.839844 826.070312 1678.898438 863.949219 L 1599.140625 863.789062 C 1603.699219 859.761719 1608.890625 851.460938 1609.089844 846.378906 C 1567.921875 853.808594 1534.28125 857.46875 1491.089844 854.570312 L 1493.351562 842.011719 C 1531.199219 842.53125 1568.710938 840.921875 1606.21875 835.980469 C 1593.691406 816.058594 1524.390625 801.460938 1506.058594 811.230469 L 1492.671875 822.058594 C 1486.390625 829.730469 1485.21875 835.230469 1477.449219 855.96875 Z M 1684.160156 863.648438 C 1683.480469 851.101562 1680.871094 837.710938 1678.21875 825.441406 C 1674.730469 809.289062 1670.488281 793.230469 1665.800781 777.390625 C 1661.140625 761.640625 1655.980469 745.921875 1650.089844 730.578125 C 1646.089844 720.148438 1641.480469 708.859375 1635.921875 698.921875 C 1687.179688 703.339844 1831.96875 754.128906 1916.679688 843.511719 L 1887.039062 865.640625 Z M 1566 1195.699219 L 1463.789062 1209.058594 L 1448.621094 1241.210938 L 1822.628906 1203.03125 C 1823.859375 1218.199219 1836.109375 1250.761719 1854.589844 1251.050781 C 1862.421875 1251.171875 1922.101562 1252.109375 1922.078125 1252.078125 C 1951.109375 1251.550781 1977.46875 1199.410156 1981.449219 1133.679688 C 1983.421875 1101.109375 1983.640625 992.839844 1909.910156 1015.03125 C 1941.960938 979.699219 1980.710938 1016.058594 1989.449219 1083.398438 L 2028.390625 1077.320312 L 1989.980469 1087.78125 C 1992.589844 1111.929688 1991.410156 1139.800781 1984.808594 1169.640625 L 2037.089844 1139.179688 C 2037.089844 1139.179688 2045.320312 1112.011719 2050.261719 1088.128906 C 2055.199219 1064.25 2054.378906 1059.308594 2051.910156 1037.089844 C 2049.441406 1014.859375 2045.730469 997.980469 2044.5 980.28125 C 2043.261719 962.570312 2036.261719 961.339844 2042.03125 954.75 C 2047.789062 948.171875 2049.019531 908.230469 2049.019531 908.230469 C 1843.921875 781.800781 1794.671875 686.890625 1558.921875 677.46875 C 1454.691406 673.308594 1277.511719 673.46875 1183.121094 688.640625 C 1137.011719 696.050781 1118.460938 710.410156 1118.460938 710.410156 L 1118.609375 710.410156 C 1119.511719 710.308594 1120.410156 710.21875 1121.308594 710.140625 C 1122.199219 710.058594 1123.101562 709.980469 1124 709.898438 L 1125.511719 709.78125 C 1126.789062 709.691406 1128.070312 709.609375 1129.351562 709.53125 L 1129.808594 709.511719 C 1131.328125 709.429688 1132.859375 709.359375 1134.378906 709.320312 L 1137.398438 709.230469 C 1255.890625 705.769531 1374.699219 709.511719 1493.210938 711.089844 C 1497.109375 709.398438 1501.058594 707.851562 1505.019531 706.390625 C 1550.121094 681.429688 1627.929688 688.269531 1677.761719 701.910156 C 1685.898438 704.140625 1694 706.609375 1702.03125 709.261719 C 1800.898438 739.441406 1889.910156 802.039062 1928 846.890625 L 1896.5 869.738281 L 1918.171875 888.019531 C 1918.171875 888.019531 1911.171875 895.871094 1911.121094 921.398438 C 1911.011719 969.738281 1906.929688 1001.429688 1885.148438 1043.910156 C 1920.671875 966.160156 1898.621094 917.03125 1911.898438 890.488281 L 1888.28125 873.039062 L 1690.980469 873.148438 L 1707.828125 889.398438 L 1708.128906 891.078125 C 1710.570312 904.769531 1711.761719 919.289062 1712.761719 933.160156 C 1713.558594 944.261719 1714.171875 955.390625 1714.621094 966.53125 L 1855.601562 957.671875 L 1714.878906 973.199219 C 1715.058594 978.460938 1715.210938 983.71875 1715.328125 988.96875 C 1715.75 1007.039062 1715.808594 1025.171875 1715.25 1043.238281 C 1714.820312 1057.011719 1714.160156 1071.679688 1711.941406 1085.289062 C 1711.160156 1090.070312 1710.339844 1094.851562 1709.53125 1099.628906 C 1709.089844 1102.230469 1708.640625 1104.820312 1708.210938 1107.421875 L 1823.25 1099.019531 L 1707.28125 1113.011719 C 1706.738281 1116.308594 1706.21875 1119.621094 1705.730469 1122.929688 C 1705.058594 1127.539062 1704.070312 1133.5 1704.179688 1138.140625 C 1704.421875 1148.21875 1706.308594 1161.171875 1709.121094 1170.859375 L 1709.21875 1171.191406 L 1823.039062 1157.828125 C 1822.890625 1158.769531 1822.78125 1159.859375 1822.710938 1160.550781 C 1787.011719 1167.210938 1659.351562 1183.839844 1566 1195.699219 Z M 1998.589844 1020.199219 C 1999.828125 1019.171875 2030.078125 1006 2030.078125 1006 L 2036.460938 962.359375 L 2027 1003.730469 Z M 1944.210938 1073.21875 C 1940.578125 1070.03125 1936.5 1068.050781 1932.089844 1067.558594 C 1931.078125 1067.449219 1930.070312 1067.421875 1929.058594 1067.460938 L 1927.371094 1111.441406 C 1927.761719 1111.328125 1928.148438 1111.28125 1928.558594 1111.28125 C 1929.820312 1111.28125 1931.019531 1111.820312 1932.109375 1112.800781 Z M 1959.371094 1102.558594 L 1936.570312 1122.28125 C 1936.128906 1119.949219 1935.441406 1117.859375 1934.558594 1116.148438 L 1952.25 1083.449219 C 1955.269531 1088.800781 1957.691406 1095.28125 1959.371094 1102.558594 Z M 1962.019531 1130.101562 C 1962.128906 1125.050781 1961.929688 1120.140625 1961.460938 1115.441406 C 1952.941406 1119.179688 1943.820312 1123.230469 1937.039062 1126.25 C 1937.078125 1126.878906 1937.101562 1127.511719 1937.101562 1128.148438 L 1937.101562 1128.5 C 1943.328125 1128.699219 1953.070312 1129.5 1962.019531 1130.101562 Z M 1955.800781 1167.199219 L 1934.328125 1140.578125 C 1935.570312 1138.339844 1936.46875 1135.371094 1936.871094 1132.03125 L 1961.070312 1143.480469 C 1960.019531 1151.960938 1958.210938 1159.960938 1955.800781 1167.199219 Z M 1897.378906 1082.261719 C 1900.828125 1072.03125 1905.199219 1063.148438 1910.171875 1056.148438 L 1913.601562 1071.738281 C 1911.429688 1074.410156 1909.378906 1077.449219 1907.480469 1080.808594 C 1909.578125 1078.148438 1911.789062 1075.839844 1914.078125 1073.929688 L 1923.148438 1115.089844 C 1922.140625 1116.71875 1921.320312 1118.800781 1920.78125 1121.179688 C 1914.269531 1110.628906 1903.808594 1093.808594 1897.378906 1082.261719 Z M 1889 1131.070312 L 1920.128906 1130.960938 C 1920.058594 1130.050781 1920.019531 1129.109375 1920.019531 1128.148438 C 1920.019531 1127.558594 1920.03125 1126.96875 1920.058594 1126.398438 C 1912.230469 1121.101562 1899.210938 1112.460938 1891.328125 1106.761719 C 1890.398438 1112.390625 1889.71875 1118.238281 1889.320312 1124.25 C 1889.171875 1126.539062 1889.058594 1128.820312 1889 1131.070312 Z M 1901.519531 1195.011719 C 1896.199219 1185.410156 1892.308594 1172.710938 1890.359375 1158.171875 L 1920.808594 1135.261719 C 1921.25 1137.160156 1921.878906 1138.871094 1922.628906 1140.300781 C 1917.25 1154.359375 1907.660156 1180.78125 1901.519531 1195.011719 Z M 1949.089844 1201.949219 C 1944.210938 1186.738281 1935.871094 1160.398438 1930.820312 1144.429688 C 1930.101562 1144.820312 1929.339844 1145.03125 1928.558594 1145.03125 C 1927.609375 1145.03125 1926.710938 1144.730469 1925.859375 1144.171875 L 1922.191406 1213.53125 C 1923.371094 1213.800781 1924.570312 1213.980469 1925.78125 1214.050781 C 1934.019531 1214.511719 1942.03125 1210.039062 1949.089844 1201.949219 Z M 1971.441406 1148.390625 L 1964.988281 1145.328125 C 1963.191406 1154.078125 1960.558594 1162.109375 1957.328125 1169.101562 L 1963.570312 1176.851562 C 1966.910156 1168.359375 1969.601562 1158.761719 1971.441406 1148.390625 Z M 1974.039062 1109.96875 C 1972.011719 1110.839844 1969.808594 1111.800781 1967.488281 1112.800781 C 1967.78125 1118.460938 1967.679688 1124.371094 1967.148438 1130.429688 C 1969.46875 1130.558594 1971.671875 1130.671875 1973.648438 1130.738281 C 1973.699219 1130.148438 1973.738281 1129.550781 1973.78125 1128.949219 C 1974.210938 1122.449219 1974.28125 1116.101562 1974.039062 1109.96875 Z M 1963.691406 1062.308594 L 1957.308594 1074.089844 C 1961.011719 1080.328125 1963.851562 1088.199219 1965.609375 1097.160156 L 1972.21875 1091.441406 C 1970.441406 1080.351562 1967.519531 1070.441406 1963.691406 1062.308594 Z M 1937.691406 1059.140625 C 1941.140625 1059.519531 1944.390625 1060.808594 1947.378906 1062.878906 L 1952.488281 1046.171875 C 1947.941406 1041.941406 1942.820312 1039.460938 1937.320312 1039.160156 C 1934.890625 1039.019531 1932.488281 1039.320312 1930.121094 1040.011719 L 1929.351562 1060 C 1932.089844 1059.128906 1934.878906 1058.828125 1937.691406 1059.140625 Z M 1092.761719 964.46875 C 1104.109375 962.78125 1120.03125 961.160156 1136.820312 957.890625 C 1139.558594 957.351562 1142.890625 954.511719 1145.628906 954.019531 C 1161.289062 951.230469 1176.53125 949.410156 1187.390625 950.929688 C 1210.808594 954.210938 1213.558594 973.320312 1170.769531 1017.148438 L 1228.398438 1049.679688 C 1315.230469 921.871094 1426.988281 1044.679688 1391.011719 1244.898438 L 1442.460938 1241.921875 L 1463.25 1197.871094 L 1426.199219 1197.871094 C 1426.199219 1197.871094 1429.289062 1080.960938 1431.761719 1034.449219 C 1434.230469 987.929688 1430.109375 978.871094 1423.109375 958.699219 C 1415.199219 935.910156 1435.210938 897.808594 1418.890625 883.671875 C 1406.539062 872.96875 1378.550781 876.261719 1378.550781 876.261719 C 1389.808594 935.359375 1191.230469 911.359375 1092.761719 964.46875 Z M 1421.691406 879.140625 C 1421.910156 879.320312 1422.128906 879.5 1422.351562 879.691406 C 1441.761719 896.511719 1420.539062 935.21875 1428.089844 956.980469 C 1429.71875 961.671875 1431.410156 966.359375 1432.839844 971.121094 C 1434.300781 975.960938 1435.371094 980.691406 1436.121094 985.519531 L 1630.28125 973.328125 L 1437.179688 994.628906 L 1437.210938 995.050781 C 1438.210938 1008.101562 1437.710938 1021.671875 1437.019531 1034.730469 C 1435.738281 1058.730469 1434.96875 1082.820312 1434.179688 1106.851562 C 1433.941406 1113.96875 1433.710938 1121.089844 1433.488281 1128.210938 L 1626.539062 1113.351562 L 1433.199219 1137.441406 C 1432.640625 1155.828125 1432.109375 1174.21875 1431.609375 1192.601562 L 1471.558594 1192.601562 L 1466.46875 1203.398438 L 1704.058594 1172.328125 C 1701.199219 1162.460938 1699.148438 1147.980469 1698.921875 1138.269531 C 1698.710938 1129.621094 1703.441406 1104.609375 1706.738281 1084.441406 C 1713.558594 1042.640625 1709.929688 931.179688 1702.941406 892.011719 L 1683.699219 873.449219 L 1592.300781 870.378906 C 1563.308594 886.339844 1489.511719 885.328125 1474.769531 877.789062 Z M 849.578125 860.738281 C 845.398438 855.878906 841.347656 845.839844 852.390625 834.28125 C 860.464844 825.828125 883.292969 806.839844 902.066406 817.980469 C 883.59375 832.28125 866.132812 846.730469 849.976562 860.410156 Z M 882.46875 1119.019531 C 882.46875 1119.019531 1072.660156 1117.640625 1086.238281 1118.289062 C 1099.820312 1118.941406 1105.308594 1147.96875 1128.269531 1184.261719 L 1085.261719 1229.980469 L 892.671875 1238.628906 L 1086.839844 1239.359375 L 1138.761719 1187.988281 L 1098.191406 1113.378906 Z M 1055.601562 1202.421875 C 1081.789062 1201.46875 1102.539062 1194.988281 1099.511719 1184.859375 C 1093.449219 1164.578125 1081.910156 1139.890625 1075.101562 1136.339844 C 1035.191406 1127.859375 917.78125 1141.660156 910.558594 1148.449219 C 895.886719 1162.25 869.660156 1197.519531 880.945312 1204.671875 C 892.464844 1211.980469 1036.679688 1203.109375 1055.601562 1202.421875 Z M 527.738281 1152.929688 L 543.46875 1170.21875 L 750.582031 1183.390625 L 778.890625 1166.410156 Z M 517.605469 1121.289062 L 540.152344 1138.871094 L 762.34375 1151.578125 L 795.664062 1134.710938 Z M 519.914062 1088.5 L 536.167969 1105.550781 L 776.210938 1118.628906 L 806.785156 1101.828125 Z M 518.265625 1055.359375 L 531.546875 1071.328125 L 803.648438 1084.28125 L 842.125 1067.101562 C 765.503906 1075.351562 522.261719 1056.871094 518.265625 1055.359375 Z M 500.773438 989.5 C 500.773438 989.5 497.480469 1018.941406 497.273438 1026.550781 C 497.066406 1034.171875 515.796875 1048.988281 515.796875 1048.988281 L 528.558594 1029.851562 C 516.253906 1014.808594 510.710938 1007.320312 500.773438 989.5 Z M 511.933594 990.039062 C 518.519531 1006.53125 535.652344 1022.019531 535.652344 1022.019531 L 828.179688 1036.980469 L 859.691406 1000.089844 C 739.738281 1005.109375 631.714844 999.609375 511.933594 990.039062 Z M 870.027344 1001.851562 L 840.386719 1039.308594 L 877.027344 1060.71875 C 953.574219 1044.019531 1027.988281 1031.039062 1100.140625 1022.03125 L 1130.609375 979.621094 C 1130.609375 979.621094 951.535156 1001.441406 870.027344 1001.851562 Z M 1141.929688 976.539062 L 1115.269531 1019.351562 C 1163.269531 1013.71875 1163.550781 1007.710938 1183.300781 969.328125 Z M 452.933594 1099.609375 C 456.429688 1122.050781 479.074219 1153.441406 483.601562 1163.519531 C 488.132812 1173.609375 477.632812 1190.488281 474.957031 1192.128906 C 474.53125 1192.390625 505.296875 1189.320312 503.359375 1164.140625 C 502.332031 1150.761719 452.933594 1099.609375 452.933594 1099.609375 Z M 940.484375 1162.621094 L 924.019531 1186.910156 C 1093.628906 1180.691406 1125.710938 1142.238281 940.484375 1162.621094 Z M 1836.980469 909.511719 L 1846.679688 908.648438 C 1848.828125 905.878906 1852.878906 904.019531 1857.53125 904.019531 C 1861.089844 904.019531 1864.300781 905.121094 1866.578125 906.878906 L 1879.761719 905.609375 L 1876.628906 915.21875 L 1869.359375 916.101562 C 1867.699219 919.730469 1863.03125 922.339844 1857.53125 922.339844 C 1853.199219 922.339844 1849.378906 920.730469 1847.148438 918.269531 L 1836.429688 919.320312 Z M 1624.160156 917.730469 L 1639.160156 916.859375 C 1642.339844 913.011719 1648.191406 910.53125 1654.808594 910.71875 C 1659.890625 910.871094 1664.429688 912.570312 1667.601562 915.171875 L 1686.449219 913.910156 L 1682.671875 927.199219 L 1671.191406 928.429688 C 1668.671875 933.539062 1661.898438 937.078125 1654.050781 936.851562 C 1647.878906 936.671875 1642.511719 934.210938 1639.421875 930.609375 L 1624.089844 931.660156 Z M 1965.339844 936.789062 C 1955.140625 939.109375 1944.988281 932.710938 1942.679688 922.511719 C 1940.519531 912.980469 1945.960938 903.488281 1955.019531 900.410156 C 1947.789062 904.371094 1943.738281 912.769531 1945.648438 921.210938 C 1947.96875 931.410156 1958.109375 937.800781 1968.308594 935.488281 C 1968.96875 935.339844 1969.621094 935.148438 1970.25 934.941406 C 1968.738281 935.761719 1967.101562 936.398438 1965.339844 936.789062 Z M 2019.789062 893.808594 L 2043.671875 909.660156 C 2045.910156 923.609375 2040.648438 949.199219 2038.320312 949.589844 L 2013.820312 899.78125 Z M 493.664062 975.621094 C 498.640625 999.800781 1060.441406 998.859375 1147.480469 965.019531 C 1151.179688 963.578125 1176.089844 960.078125 1184.730469 960.078125 C 1193.378906 960.078125 1198.519531 960.699219 1187.410156 978.609375 C 1176.289062 996.511719 1171.558594 1018.738281 1130.390625 1024.511719 C 1105.140625 1028.039062 933.398438 1053.738281 862.320312 1076.039062 C 843.359375 1081.988281 835.339844 1082.410156 828.324219 1099.988281 C 814.378906 1134.921875 786.578125 1211.730469 754.003906 1216.191406 C 729.816406 1219.5 563.730469 1209.441406 551.195312 1202.128906 C 523.355469 1185.898438 499.285156 1104.71875 496.445312 1073.488281 C 495.621094 1064.441406 491.714844 1057.441406 485.949219 1051.46875 C 476.539062 1041.71875 468.441406 1019.140625 487.382812 1013.289062 L 493.566406 1017.300781 L 496.035156 988.691406 C 496.035156 988.691406 488.933594 983.75 493.664062 975.621094 "/>
</svg>
